<svg xmlns="http://www.w3.org/2000/svg" version="1.1" width="96" height="96" viewbox="0 0 96 96"><rect x="0" y="0" width="96" height="96" fill="#FFFFFF"></rect><g transform="translate(24, 59.99999999999999)"><path d="M17.47-33.26L17.47-33.26Q20.64-34.32 23.57-34.32L23.57-34.32Q27.6-34.32 30.48-33.26L30.48-33.26Q36.43-31.25 40.42-26.23 44.4-21.22 45.22-14.35L45.22-14.35Q45.31-13.3 45.31-12L45.31-12Q45.31-8.4 44.16-4.85L44.16-4.85Q42.34 0.67 38.33 4.54 34.32 8.4 28.94 9.74L28.94 9.74Q26.69 10.32 24 10.32L24 10.32Q21.94 10.32 20.59 10.08L20.59 10.08Q16.42 9.36 12.74 6.98 9.07 4.61 6.62 1.01L6.62 1.01Q3.46-3.65 2.74-9.65L2.74-9.65Q2.69-10.18 2.69-12L2.69-12Q2.69-15.74 3.79-19.15L3.79-19.15Q5.47-24.24 9.05-27.94 12.62-31.63 17.47-33.26ZM43.39-12L43.39-12Q43.39-20.02 38.4-25.73 33.41-31.44 26.06-32.35L26.06-32.35Q25.63-32.4 23.66-32.4L23.66-32.4Q21.41-32.4 19.44-31.87L19.44-31.87Q13.82-30.43 9.84-26.02 5.86-21.6 4.85-15.65L4.85-15.65Q4.61-13.97 4.61-12L4.61-12Q4.61-9.26 5.18-6.91L5.18-6.91Q6.34-2.21 9.41 1.49 12.48 5.18 16.85 7.01L16.85 7.01Q20.26 8.45 24 8.45L24 8.45Q25.06 8.45 25.82 8.35L25.82 8.35Q33.74 7.49 38.88 1.1L38.88 1.1Q42.58-3.5 43.3-9.79L43.3-9.79Q43.39-10.75 43.39-12Z" fill="#404040"></path></g></svg>